PathFileType	4	(X/Y/Z)	/Users/itak/Documents/Research/Walk-IL/dataset/trc/00494_00167.trc
DataRate	CameraRate	NumFrames	NumMarkers	Units	OrigDataRate	OrigDataStartFrame	OrigNumFrames
100.000000	100.000000	4	53	mm	100.000000	518	593
Frame#	Time	RPSI			LPSI			L3			STRN			T10			C7			CLAV			RBAK			LBAK			LSHO			LUPA			LAEL			LAOL			LWTS			LWPS			LFRA			LIFD			LHPS			LHTS			RSHO			RUPA			RAEL			RAOL			RWTS			RWPS			RFRA			RIFD			RHTS			RHPS			RBHD			LFHD			RFHD			LBHD			LHIP			RHIP			RASI			LASI			LKNE			LTHI			LANK			LTIP			LTOE			LMT1			LMT5			LHEE			RKNE			RTHI			RANK			RTIP			RTOE			RMT1			RMT5			RHEE			
		X1	Y1	Z1	X2	Y2	Z2	X3	Y3	Z3	X4	Y4	Z4	X5	Y5	Z5	X6	Y6	Z6	X7	Y7	Z7	X8	Y8	Z8	X9	Y9	Z9	X10	Y10	Z10	X11	Y11	Z11	X12	Y12	Z12	X13	Y13	Z13	X14	Y14	Z14	X15	Y15	Z15	X16	Y16	Z16	X17	Y17	Z17	X18	Y18	Z18	X19	Y19	Z19	X20	Y20	Z20	X21	Y21	Z21	X22	Y22	Z22	X23	Y23	Z23	X24	Y24	Z24	X25	Y25	Z25	X26	Y26	Z26	X27	Y27	Z27	X28	Y28	Z28	X29	Y29	Z29	X30	Y30	Z30	X31	Y31	Z31	X32	Y32	Z32	X33	Y33	Z33	X34	Y34	Z34	X35	Y35	Z35	X36	Y36	Z36	X37	Y37	Z37	X38	Y38	Z38	X39	Y39	Z39	X40	Y40	Z40	X41	Y41	Z41	X42	Y42	Z42	X43	Y43	Z43	X44	Y44	Z44	X45	Y45	Z45	X46	Y46	Z46	X47	Y47	Z47	X48	Y48	Z48	X49	Y49	Z49	X50	Y50	Z50	X51	Y51	Z51	X52	Y52	Z52	X53	Y53	Z53	

519	5.18	362.9718322753906	961.4545288085938	-341.5637512207031	223.1026916503906	958.2913818359375	-365.9446411132812	307.1512756347656	1047.653198242188	-361.7308654785156	326.3267517089844	1258.003784179688	-615.863525390625	297.5835266113281	1168.529174804688	-334.7566833496094	316.5733032226562	1440.934448242188	-380.86572265625	320.1371459960938	1368.794555664062	-573.8197021484375	403.616943359375	1317.443237304688	-319.2132263183594	212.7676086425781	1392.312622070312	-360.4054870605469	145.6937866210938	1422.110595703125	-469.2558898925781	43.32473754882812	1308.098999023438	-480.1996459960938	4.738514423370361	1097.425659179688	-527.5935668945312	58.16073226928711	1070.352294921875	-443.2549743652344	64.96124267578125	910.8270263671875	-632.9466552734375	1.71544623374939	889.3457641601562	-601.3072509765625	-0.2112576067447662	1014.588928222656	-565.1095581054688	64.21353912353516	751.9879150390625	-669.9935302734375	4.708746433258057	814.3342895507812	-623.7205200195312	61.29312515258789	830.0991821289062	-666.357421875	481.4674072265625	1416.202758789062	-436.5622253417969	555.760498046875	1357.265869140625	-411.5519409179688	611.62548828125	1069.64794921875	-406.6412048339844	562.7644653320312	1054.770385742188	-362.4311218261719	585.284423828125	861.2982177734375	-506.2367858886719	631.263671875	848.22314453125	-431.261474609375	622.1415405273438	1011.405334472656	-406.4786071777344	590.3818359375	703.6951293945312	-500.7308959960938	598.02001953125	762.2879028320312	-516.110107421875	629.8126220703125	759.4864501953125	-445.816162109375	409.086181640625	1641.626220703125	-445.1254577636719	245.9423370361328	1675.569458007812	-567.1516723632812	375.8898010253906	1680.009643554688	-573.1410522460938	233.6086120605469	1638.20458984375	-418.0786437988281	123.1842193603516	861.2694702148438	-516.5355834960938	516.249267578125	856.5781860351562	-431.5732116699219	471.6331481933594	896.072998046875	-546.4447631835938	218.2499389648438	896.3976440429688	-602.9252319335938	141.2414093017578	444.3572998046875	-499.2005004882812	132.0158843994141	594.1155395507812	-534.605712890625	123.5908432006836	39.02366256713867	-425.1790466308594	121.9995422363281	299.31005859375	-491.4918823242188	235.3896179199219	41.82861328125	-641.924072265625	250.490966796875	46.86102676391602	-560.81640625	138.4493713378906	45.07347106933594	-578.3505249023438	179.8568572998047	45.22099304199219	-370.2500305175781	486.2821655273438	464.8428955078125	-436.3925170898438	527.2833251953125	720.3673706054688	-467.9301452636719	480.8435974121094	38.00396347045898	-363.3036804199219	495.3280639648438	322.5852355957031	-429.9020385742188	454.9346313476562	43.89946746826172	-585.7853393554688	414.5590209960938	51.31818008422852	-524.8798828125	520.7515258789062	40.46673202514648	-491.2687072753906	427.7240295410156	33.97672653198242	-304.1036987304688	
520	5.19	362.1083984375	961.2164916992188	-341.7586975097656	222.2854309082031	958.0811157226562	-366.4978332519531	306.399169921875	1047.425903320312	-362.1231689453125	326.2992553710938	1257.963989257812	-616.0686645507812	296.9192199707031	1168.411499023438	-335.1218566894531	315.8433837890625	1440.819580078125	-380.9899291992188	319.8071899414062	1368.666625976562	-573.9893188476562	402.9580993652344	1317.339111328125	-319.3309631347656	212.0328369140625	1392.068115234375	-360.8356628417969	145.2003021240234	1421.828491210938	-469.7926330566406	42.92607116699219	1307.811767578125	-481.0824279785156	4.54749059677124	1097.061279296875	-528.5234375	57.47698974609375	1070.156616210938	-443.8079223632812	65.32259368896484	910.0057983398438	-632.9556274414062	1.80714738368988	888.7131958007812	-601.7066650390625	-0.3316402435302734	1014.121276855469	-565.7890014648438	64.97203063964844	750.7855224609375	-668.867431640625	5.022549152374268	813.4772338867188	-623.5656127929688	62.00761795043945	828.9804077148438	-665.8568115234375	480.7790222167969	1416.335205078125	-436.4573059082031	555.2874145507812	1357.612426757812	-411.5723266601562	612.452392578125	1070.302856445312	-407.4026184082031	563.6763305664062	1055.006103515625	-363.15966796875	586.2477416992188	861.36376953125	-507.2100830078125	632.8106079101562	848.9921264648438	-432.780517578125	623.170654296875	1012.070678710938	-407.464599609375	592.1546020507812	704.4974365234375	-502.3540954589844	599.7523803710938	763.0684814453125	-517.6698608398438	631.5344848632812	760.26708984375	-447.3745727539062	408.6912841796875	1641.393676757812	-445.1075134277344	245.7622528076172	1675.609497070312	-567.2928466796875	375.7114868164062	1679.8759765625	-573.1634521484375	233.2333068847656	1638.243408203125	-418.3072204589844	122.7669525146484	861.178466796875	-517.2514038085938	515.87646484375	856.4838256835938	-431.3032531738281	471.5504760742188	896.000732421875	-546.3452758789062	218.1681976318359	896.127197265625	-603.2385864257812	140.8436126708984	444.310546875	-499.0541687011719	131.5702667236328	593.99365234375	-534.5155639648438	123.534538269043	38.96397399902344	-425.1622314453125	121.7256774902344	299.246826171875	-491.3794555664062	235.3794250488281	41.89752578735352	-641.8322143554688	250.4432067871094	46.84151077270508	-560.7430419921875	138.4558258056641	45.07715225219727	-578.3219604492188	179.7421417236328	45.19464111328125	-370.1807250976562	486.1337890625	464.7659606933594	-436.3001708984375	526.7506103515625	720.4446411132812	-468.2102355957031	480.8912658691406	37.86618423461914	-363.2389221191406	495.2334899902344	322.5238647460938	-429.8126525878906	454.9340209960938	43.94912338256836	-585.7164916992188	414.5624389648438	51.31781768798828	-524.852294921875	520.7337646484375	40.43332672119141	-491.2933959960938	427.7569274902344	33.84677886962891	-304.0168151855469	
521	5.2	361.2696533203125	960.9236450195312	-341.9279479980469	221.4770660400391	957.9056396484375	-367.0177917480469	305.7031555175781	1047.12890625	-362.4915161132812	326.3112487792969	1257.897583007812	-616.2600708007812	296.2704772949219	1168.212280273438	-335.5061340332031	315.1202697753906	1440.6484375	-381.1013488769531	319.5013122558594	1368.4873046875	-574.113525390625	402.3186340332031	1317.148193359375	-319.414306640625	211.3150482177734	1391.75732421875	-361.2374267578125	144.7015380859375	1421.440307617188	-470.3072204589844	42.55321884155273	1307.360717773438	-481.9330139160156	4.386160850524902	1096.550170898438	-529.455322265625	56.81828308105469	1069.828857421875	-444.3399658203125	65.68042755126953	909.0096435546875	-632.8806762695312	1.868901610374451	887.919189453125	-601.9854125976562	-0.4359955489635468	1013.494384765625	-566.4223022460938	65.59790802001953	749.408203125	-667.6499633789062	5.262279510498047	812.465576171875	-623.3065185546875	62.64188766479492	827.6856689453125	-665.244873046875	480.1304931640625	1416.37353515625	-436.3350524902344	554.8406982421875	1357.802978515625	-411.590087890625	613.3431396484375	1070.820922851562	-408.3849182128906	564.6732177734375	1055.104370117188	-364.0896606445312	587.2091674804688	861.2864379882812	-508.3750915527344	634.4279174804688	849.6353149414062	-434.5187377929688	624.2717895507812	1012.616882324219	-408.6782531738281	593.84033203125	705.1387939453125	-504.0636596679688	601.3893432617188	763.6807250976562	-519.3654174804688	633.2687377929688	760.9047241210938	-449.0956115722656	408.3060607910156	1641.138305664062	-445.0412292480469	245.5937805175781	1675.607055664062	-567.3980712890625	375.5550842285156	1679.713256835938	-573.159423828125	232.8538360595703	1638.262329101562	-418.5208129882812	122.3670806884766	861.110595703125	-517.9241333007812	515.5071411132812	856.3544311523438	-431.051513671875	471.480224609375	895.8871459960938	-546.2233276367188	218.1170654296875	895.8466186523438	-603.5308837890625	140.4258270263672	444.2626342773438	-498.8699645996094	131.1628112792969	593.8806762695312	-534.3812866210938	123.473258972168	38.89456939697266	-425.1483154296875	121.4438171386719	299.1769104003906	-491.22705078125	235.3732299804688	41.96887588500977	-641.7301635742188	250.4003448486328	46.82719421386719	-560.658447265625	138.4616394042969	45.08295059204102	-578.2880249023438	179.6119384765625	45.16117858886719	-370.0997924804688	486.0325317382812	464.6680297851562	-436.2336120605469	526.2755737304688	720.5391235351562	-468.4654541015625	480.9466552734375	37.70022201538086	-363.1662902832031	495.1698913574219	322.4402465820312	-429.7394409179688	454.9270324707031	44.00534820556641	-585.6294555664062	414.5642395019531	51.31505966186523	-524.8126831054688	520.7177734375	40.38874435424805	-491.3263244628906	427.8252258300781	33.68688201904297	-303.9157104492188	
522	5.21	360.4886474609375	960.6222534179688	-342.07080078125	220.7119598388672	957.7998657226562	-367.484375	305.0882263183594	1046.796020507812	-362.8171997070312	326.3450622558594	1257.805908203125	-616.4378051757812	295.6438598632812	1167.95068359375	-335.8768615722656	314.4026489257812	1440.439575195312	-381.2069702148438	319.2245788574219	1368.278686523438	-574.2041625976562	401.6956787109375	1316.893798828125	-319.4671020507812	210.6183166503906	1391.409057617188	-361.6098022460938	144.1992492675781	1420.970581054688	-470.7972106933594	42.20985794067383	1306.773681640625	-482.7474060058594	4.268467426300049	1095.919067382812	-530.3696899414062	56.2174186706543	1069.398559570312	-444.8489379882812	66.01883697509766	907.8641357421875	-632.7110595703125	1.892061591148376	886.9917602539062	-602.121337890625	-0.514731764793396	1012.73681640625	-566.9989013671875	66.05509185791016	747.9005126953125	-666.3558959960938	5.418729305267334	811.3335571289062	-622.944580078125	63.17131423950195	826.2501220703125	-664.5244140625	479.5279541015625	1416.335571289062	-436.1851196289062	554.4159545898438	1357.852783203125	-411.5755310058594	614.2733764648438	1071.22021484375	-409.573486328125	565.745849609375	1055.088256835938	-365.1938171386719	588.1642456054688	861.1474609375	-509.7554931640625	636.1066284179688	850.1837158203125	-436.4849548339844	625.429931640625	1013.066711425781	-410.1109008789062	595.4752807617188	705.6458740234375	-505.8867492675781	602.9371337890625	764.1702880859375	-521.2249145507812	635.0374145507812	761.433837890625	-451.0227661132812	407.9351806640625	1640.876586914062	-444.9296569824219	245.4399566650391	1675.57861328125	-567.4742431640625	375.415283203125	1679.54296875	-573.1244506835938	232.4725341796875	1638.264892578125	-418.7172546386719	122.0078048706055	861.0646362304688	-518.5365600585938	515.1475219726562	856.210205078125	-430.8296203613281	471.4044799804688	895.7452392578125	-546.08642578125	218.0825653076172	895.57861328125	-603.8008422851562	139.9916687011719	444.2162170410156	-498.6757202148438	130.8033294677734	593.7847900390625	-534.2412719726562	123.4033660888672	38.81655883789062	-425.1411437988281	121.1585464477539	299.1056823730469	-491.0639038085938	235.3772583007812	42.03823089599609	-641.6199340820312	250.3623352050781	46.81806945800781	-560.5642700195312	138.4689331054688	45.09019470214844	-578.2515258789062	179.46240234375	45.12476348876953	-370.01123046875	485.9844970703125	464.5616760253906	-436.1950988769531	525.8704833984375	720.6215209960938	-468.7050476074219	481.0170288085938	37.51263809204102	-363.0912475585938	495.15087890625	322.34619140625	-429.6880798339844	454.9131164550781	44.06879806518555	-585.5201416015625	414.5635986328125	51.30981063842773	-524.7576904296875	520.7089233398438	40.3396110534668	-491.3577880859375	427.9460144042969	33.50399780273438	-303.8046264648438	
